<svg width="132" height="132" viewBox="0 0 132 132" fill="none" xmlns="http://www.w3.org/2000/svg">
<g clip-path="url(#clip0_19_47)">
<path d="M66 0C102.452 0 132 29.5482 132 66V112.2C132 117.451 129.914 122.487 126.201 126.201C122.487 129.914 117.451 132 112.2 132H69.3V103.046C69.3 96.4392 69.7026 89.595 73.1676 83.9718C75.6483 79.9419 78.9668 76.4928 82.8978 73.8582C86.8288 71.2237 91.2805 69.4654 95.9508 68.7027L97.2147 68.4981C97.7357 68.32 98.1881 67.9834 98.5084 67.5355C98.8286 67.0875 99.0008 66.5507 99.0008 66C99.0008 65.4493 98.8286 64.9125 98.5084 64.4645C98.1881 64.0166 97.7357 63.68 97.2147 63.5019L95.9508 63.2973C89.127 62.1826 82.8256 58.9526 77.9365 54.0635C73.0473 49.1744 69.8174 42.873 68.7027 36.0492L68.4981 34.7853C68.32 34.2642 67.9834 33.8119 67.5355 33.4916C67.0875 33.1714 66.5507 32.9992 66 32.9992C65.4493 32.9992 64.9125 33.1714 64.4645 33.4916C64.0166 33.8119 63.68 34.2642 63.5019 34.7853L63.2973 36.0492C62.5348 40.7196 60.7766 45.1713 58.142 49.1024C55.5075 53.0334 52.0582 56.3518 48.0282 58.8324C42.405 62.2974 35.5608 62.7 28.9542 62.7H0.0791931C1.80509 27.7827 30.657 0 66 0Z" fill="#F73558"/>
<path d="M0 69.3H28.9542C35.5608 69.3 42.405 69.7026 48.0282 73.1676C52.4237 75.8761 56.1239 79.5763 58.8324 83.9718C62.2974 89.595 62.7 96.4392 62.7 103.046V132H19.8C14.5487 132 9.51251 129.914 5.79929 126.201C2.08607 122.487 0 117.451 0 112.2L0 69.3ZM132 6.6C132 8.35043 131.305 10.0292 130.067 11.2669C128.829 12.5046 127.15 13.2 125.4 13.2C123.65 13.2 121.971 12.5046 120.733 11.2669C119.495 10.0292 118.8 8.35043 118.8 6.6C118.8 4.84957 119.495 3.17084 120.733 1.9331C121.971 0.695355 123.65 0 125.4 0C127.15 0 128.829 0.695355 130.067 1.9331C131.305 3.17084 132 4.84957 132 6.6Z" fill="#F73558"/>
</g>
<defs>
<clipPath id="clip0_19_47">
<rect width="132" height="132" fill="white"/>
</clipPath>
</defs>
</svg>
