<svg width="716" height="712" viewBox="0 0 716 712" fill="none" xmlns="http://www.w3.org/2000/svg">
<path fill-rule="evenodd" clip-rule="evenodd" d="M374.38 8.5999L420.03 60.7099L488.3 31.7499C499.36 27.0899 512.1 33.0899 515.63 44.5099L536.46 111.67L610.51 112.98C622.48 113.17 631.85 123.8 630.37 135.69L622.13 205.59L689.26 236.92C699.42 241.68 703.82 253.78 699.06 263.95C689.91 282.91 673.34 307.35 662.13 326.17L710.75 382.16C718.6 391.22 716.85 405.23 707.08 412.11L649.64 452.7L671.28 523.59C674.78 535.15 667.51 547.1 655.72 549.43L586.84 563.15L577.8 636.67C576.26 649.26 563.64 657.4 551.6 653.71L484.44 638.48L446.28 701.94C440.09 712.27 426.27 714.99 416.65 707.81L360.24 665.7L299.55 708.17C289.61 715.11 276.08 711.87 270.15 701.38L235.83 640.07L163.01 654.21C150.63 656.57 139.26 647.31 138.83 634.82L132.53 566.02L60.36 549.34C48.55 546.63 41.81 534.36 45.62 522.95L68.25 456.35L9.08999 411.73C-1.11001 404.04 -1.75 389.03 7.58 380.46L54.22 330.04L18.31 265.22C12.42 254.63 17.05 241.38 28.12 236.62L92.65 208.91L86.22 135.06C85.12 122.32 96 111.78 108.58 113L177.1 113.93L201.25 43.8599C205.34 31.9599 219.04 26.6499 230.09 32.4599L292.93 61.4599L343.46 7.3099C352.03 -1.9001 366.65 -1.1601 374.38 8.5999ZM191.53 364.08C164.51 337.06 205.6 295.96 232.63 322.98L323.65 414.01L483.04 237.33C508.53 209 551.68 247.81 526.18 276.16L347.26 474.48C336.41 487.82 316.36 488.91 304.16 476.7L191.53 364.08Z" fill="#22c55e"/>
</svg>
