<svg width="44" height="44" viewBox="0 0 44 44" fill="none" xmlns="http://www.w3.org/2000/svg">
<path d="M11.835 37.0487L11.7269 36.858L11.5134 36.8083L4.7371 35.2307L5.39797 27.9116L5.41661 27.7052L5.28375 27.5461L0.65146 22L5.28375 16.4539L5.41661 16.2948L5.39797 16.0884L4.7371 8.76929L11.5134 7.19174L11.7269 7.14203L11.835 6.9513L15.4109 0.641874L21.796 3.4946L22 3.58573L22.204 3.4946L28.5891 0.641874L32.165 6.9513L32.2731 7.14203L32.4866 7.19174L39.2629 8.76928L38.602 16.0884L38.5834 16.2948L38.7162 16.4539L43.3485 22L38.7162 27.5461L38.5834 27.7052L38.602 27.9116L39.2629 35.2307L32.4866 36.8083L32.2731 36.858L32.165 37.0487L28.5891 43.3581L22.204 40.5054L22 40.4143L21.796 40.5054L15.4109 43.3581L11.835 37.0487ZM19.5383 29.7833L19.9 30.1622L20.2617 29.7833L31.5617 17.9452L31.8855 17.606L31.5677 17.2611L28.7677 14.2231L28.4064 13.8311L28.0383 14.2167L19.8958 22.747L15.9576 18.7172L15.5958 18.347L15.2383 18.7214L12.4383 21.6548L12.1088 22L12.4383 22.3452L19.5383 29.7833Z" fill="#3897F0" stroke="black"/>
</svg>
